<svg role="img" aria-labelledby="dartlang-logo__title" class="{{ include.class }}" xmlns="http://www.w3.org/2000/svg" width="600" height="600" viewBox="0 0 600 600">
    <title id="dartlang-logo__title">Dartlang Logo Symbol</title>
    <path fill="#00D2B8" d="M172.6241,171.7499l-36.9603-36.9643l0.1573,267.1812l0.4405,12.4872 c0.1832,5.873,1.2742,12.5046,3.0935,19.3766l292.8758,103.2712l73.2089-32.4357l0.0264-0.0871L172.6241,171.7499z"/>
    <path fill="#55DDCA" d="M139.3551,433.8306l0.0174,0.0174c-0.0174-0.122-0.0786-0.2574-0.0786-0.3793 C139.2939,433.5906,139.3073,433.7086,139.3551,433.8306z M505.4662,504.579 M505.4398,504.6661l-73.2089,32.4357L139.3726,433.848 c5.5938,21.4644,17.9764,45.5904,31.3058,58.7849l95.5745,95.029l212.5152,0.2792l26.6981-83.3621L505.4398,504.6661z"/>
    <path fill="#0081C6" d="M135.6638,134.7704L21.8341,306.7238c-9.4593,10.1006-4.76,30.9389,10.4758,46.2927 l65.7176,66.2632l41.3276,14.5509c-1.8193-6.872-2.9104-13.5037-3.0935-19.3766l-0.4405-12.4872l-0.1573-267.1812V134.7704z"/>
    <path fill="#0075C9" d="M434.6351,138.2173c-6.872-1.7563-13.4603-2.8384-19.4378-3.0283l-13.1945-0.4557 l-266.339,0.0371L505.5055,504.579h0.0304l32.4791-73.2835L434.6351,138.2173z"/>
    <path fill="#00A4E4" d="M434.2991,138.1472c0.1439,0.0331,0.2529,0.0701,0.3489,0.0853l-0.013-0.0152 C434.552,138.1803,434.443,138.1803,434.2991,138.1472z M493.3846,169.5946c-13.4254-13.5322-37.2351-25.8296-58.7366-31.3621 l103.3669,293.063l-32.4791,73.2835h-0.0304l79.3741-25.3497l0.1702-217.6204L493.3846,169.5946z"/>
    <path fill="#00D2B8" d="M420.1534,97.1426l-66.2453-65.761c-15.3189-15.1773-36.1659-19.8962-46.2405-10.4606L135.6638,134.7704 l266.339-0.0371l13.1945,0.4557c5.9775,0.1899,12.5658,1.272,19.4378,3.0283L420.1534,97.1426z M135.6638,134.7704"/>
</svg>
