<svg class="logo-symbol {{ include.class }}" xmlns="http://www.w3.org/2000/svg" width="600" height="600" viewBox="0 0 600 600">
    <title>{{ site.title }} Logo Symbol</title>
    <path fill="#55DDCA" d="M143.8054,229.1287c-2.4099-7.8397-4.5647-15.5622-6.4502-23.1366 c-1.5703-6.3082-2.9612-12.5173-4.1516-18.6014c-5.9082-30.1919-7.002-57.9253-3.1631-80.2026 c4.1787-24.2603,14.1357-41.5684,28.792-50.0527c29.8389-17.2759,80.4639,0.4863,132.1191,46.3521 c3.0908,2.7443,6.1953,5.619,9.3074,8.5988c0.0032,0.0031,0.0063,0.0061,0.0095,0.0092l0,0 c0.7139,0.6834,1.4282,1.3783,2.1428,2.0748l0.0005-0.0001c-3.7444,1.1565-7.1951,2.9704-10.1768,5.3875l-11.145,7.4233 c-2.03-1.9014-4.0557-3.7546-6.074-5.5467c-22.2305-19.7402-44.4473-34.0806-64.2471-41.4712 c-17.041-6.3618-31.2168-7.0908-39.9121-2.0571c-8.1797,4.7349-14.2754,16.5811-17.165,33.3569 c-3.3477,19.4312-2.2881,44.1621,3.0645,71.5195c1.1055,5.6501,2.3975,11.4192,3.8525,17.2817 c1.8352,7.3921,3.9429,14.9392,6.3105,22.6107l-16.8184,25.5662C147.8396,241.8046,145.7427,235.4303,143.8054,229.1287z  M206.552,376.9409c3.2498,12.5485,10.4436,26.653,18.1873,34.3668l55.5247,55.5558l123.4622,0.1633l15.4941-48.6838 l-42.5303,18.9622L206.552,376.9409z"/>
    <path fill="#00A4E4" d="M165.4087,382.4441c0.219-0.7319,0.4585-1.4751,0.6826-2.2098l2.1963,2.2285 c2.125,2.1561,4.7119,3.8018,7.5654,4.8127l14.6885,5.2043c1.9956,5.2996,4.4172,10.4807,7.1147,15.2955 c-13.0691-1.8635-25.5408-4.107-37.3438-6.7221c0.2197-0.8823,0.427-1.756,0.6548-2.6438c0.0891-0.347,0.1768-0.6932,0.2671-1.0411 c0.606-2.3341,1.2358-4.6841,1.897-7.0536c0.0281-0.1004,0.0576-0.2018,0.0857-0.3022c0.6755-2.4139,1.3787-4.8452,2.1099-7.2927 C165.3545,382.6277,165.3811,382.5362,165.4087,382.4441z M137.9177,391.5794c0.2368-0.9214,0.4775-1.8448,0.7224-2.7705 c0.1721-0.6508,0.3472-1.3032,0.5232-1.9561c0.272-1.0093,0.5464-2.0198,0.8274-3.0338c0.1484-0.5349,0.3003-1.0715,0.4512-1.6077 c0.3188-1.1332,0.6394-2.2673,0.9692-3.4062c0.0959-0.3307,0.1951-0.6631,0.292-0.9943c0.5603-1.9184,1.1367-3.8445,1.7285-5.7781 c-4.7656-1.3749-9.3867-2.8199-13.8403-4.3422c-27.0811-9.2559-49.7393-21.293-65.5234-34.8105 c-13.5215-11.5801-20.9688-23.4385-20.9688-33.3926c0-24.8115,40.8652-50.1646,81.3652-64.2847 c6.1616-2.1481,12.6257-4.1722,19.3411-6.074c-2.4099-7.8397-4.5647-15.5622-6.4502-23.1366 c-7.1772,2.0424-14.1223,4.2235-20.7913,6.5485c-61.0293,21.2773-97.4648,53.7808-97.4648,86.9468 c0,17.3232,10.1523,35.1738,29.3584,51.6221c18.0703,15.4746,43.4414,29.0615,73.3711,39.292 c4.8853,1.6697,9.9551,3.2509,15.1807,4.7527c0.1133-0.4572,0.2349-0.9189,0.3499-1.3771 C137.543,393.0457,137.7288,392.3135,137.9177,391.5794z M160.6089,200.0639c1.8352,7.3921,3.9429,14.9392,6.3105,22.6107 l18.1147-27.5367C176.6865,196.6175,168.5366,198.2622,160.6089,200.0639z M406.1436,193.7728 c7.9155,4.2022,14.9922,9.239,20.2871,14.6097l8.7097,8.798c0.3733-1.2662,0.739-2.5275,1.0959-3.783 c0.1453-0.5115,0.2937-1.025,0.4363-1.5347c0.5005-1.7899,0.9871-3.5709,1.4529-5.3376c0.061-0.2312,0.1172-0.4592,0.1777-0.6901 c0.4031-1.5419,0.7922-3.0741,1.1687-4.5975c0.0745-0.3011,0.1455-0.6,0.219-0.9003 C428.8994,197.8473,417.6897,195.6558,406.1436,193.7728z M580.9009,299.4873c0-16.9351-9.9902-34.2227-28.8926-49.9941 c-17.3564-14.4829-41.9062-27.4312-70.9951-37.4448c-5.833-2.0082-11.8733-3.9064-18.0869-5.7002 c-0.1521,0.6194-0.3013,1.2369-0.4575,1.8592c-0.0747,0.2976-0.1543,0.5985-0.23,0.8968c-0.5024,1.9799-1.0271,3.9747-1.571,5.982 c-0.1111,0.4097-0.219,0.8173-0.3318,1.228c-0.6033,2.198-1.2314,4.4117-1.8833,6.6403c-0.1204,0.4112-0.2446,0.8246-0.3667,1.2368 c-0.5176,1.75-1.0503,3.5088-1.5974,5.2764c5.741,1.6629,11.3232,3.4182,16.7122,5.2735 c26.3584,9.0737,48.293,20.5469,63.4316,33.1792c13.0703,10.9062,20.2686,22.1167,20.2686,31.5669 c0,16.6183-22.5337,41.8255-71.4956,61.6015l-0.02,25.7372C544.6028,364.9621,580.9009,332.0309,580.9009,299.4873z  M418.9409,320.6554l18.4192,52.5515l0.7859,2.2418l-6.2898,14.281l-12.5764,28.5554l46.0925-14.8134l0.0989-127.2251 L446.8633,257.45C439.1663,277.9168,429.7942,299.169,418.9409,320.6554z M378.0942,204.1184l29.6536,84.6031 c7.9253-17.1371,14.7808-33.9469,20.4578-50.1182l-15.9878-16.15C404.418,214.5421,390.5857,207.3528,378.0942,204.1184z  M419.2769,418.2916L419.2769,418.2916l0.0029-0.0066v0.0001L419.2769,418.2916z M378.0867,204.1095l0.0027,0.0077l0.0049,0.0012 L378.0867,204.1095z"/>
    <path fill="#0081C6" d="M267.187,486.912c-4.4707,3.6965-8.853,7.0842-13.1445,10.2043v-0.1052v-0.0001 c-15.5647,11.3138-29.8623,18.9237-42.2827,23.4372c-0.0061,0.0022-0.0122,0.0045-0.0181,0.0067 c-0.8894,0.3231-1.7673,0.627-2.6372,0.9185c-0.1179,0.0395-0.2358,0.0791-0.3533,0.118c-0.8252,0.2734-1.6416,0.5328-2.4487,0.778 c-0.1367,0.0416-0.272,0.081-0.408,0.1217c-0.8091,0.242-1.6113,0.4736-2.4016,0.6876c-0.062,0.0168-0.1228,0.0316-0.1846,0.0482 c-2.5588,0.6873-5.0178,1.2285-7.3699,1.6301c-0.0493,0.0084-0.1003,0.019-0.1497,0.0273 c-0.6145,0.1036-1.2148,0.189-1.8145,0.2736c-0.262,0.0369-0.5261,0.0768-0.7852,0.1102 c-0.5337,0.0687-1.0579,0.1255-1.5793,0.1792c-0.3132,0.0322-0.625,0.063-0.9336,0.0898c-0.4829,0.042-0.9609,0.0776-1.4326,0.1065 c-0.3372,0.0206-0.6687,0.0353-1,0.0494c-0.4399,0.0186-0.8789,0.0363-1.3086,0.0433c-0.3574,0.0059-0.7053,0.0015-1.0557-0.0005 c-0.3938-0.0023-0.7917-0.0003-1.1765-0.0125c-0.4663-0.0146-0.9177-0.0452-1.3704-0.0743 c-0.4697-0.0302-0.9319-0.0679-1.387-0.1134c-0.4563-0.0456-0.9124-0.0915-1.3538-0.1522 c-0.2812-0.0387-0.5515-0.0884-0.8267-0.1332c-0.3879-0.0631-0.7744-0.1274-1.1499-0.2026 c-0.2705-0.0541-0.5339-0.1152-0.7983-0.1755c-0.3655-0.0834-0.7261-0.1713-1.0791-0.2663 c-0.2507-0.0676-0.4985-0.1379-0.7432-0.2113c-0.3555-0.1068-0.7019-0.2211-1.0437-0.34c-0.2214-0.077-0.4443-0.1527-0.6599-0.2348 c-0.3677-0.1399-0.7222-0.2911-1.0728-0.4456c-0.1719-0.0756-0.3496-0.1464-0.5171-0.2254 c-0.5098-0.2405-1.0039-0.4935-1.4751-0.7653c-21.4932-12.3955-23.041-60.4619-15.04-102.5996 c0.4001-2.1071,0.8372-4.2426,1.2915-6.3908c0.1016-0.481,0.2036-0.9617,0.3079-1.4446c0.4653-2.153,0.9504-4.3207,1.4683-6.5117 c0.0349-0.1474,0.0725-0.2968,0.1077-0.4443c0.3018-1.2692,0.6318-2.5579,0.9512-3.8391c0.2197-0.8823,0.427-1.756,0.6548-2.6438 c0.0894-0.3472,0.1768-0.6931,0.2671-1.0411c0.606-2.3341,1.2358-4.6841,1.897-7.0536c0.0281-0.1005,0.0576-0.2017,0.0857-0.3022 c0.6755-2.4139,1.3787-4.8452,2.1099-7.2927c0.0276-0.0921,0.054-0.1835,0.0818-0.2757c0.219-0.7319,0.4585-1.4751,0.6826-2.2098 c2.1362-7.0046,4.4758-14.1247,7.0422-21.3469l9.3987,9.5365l24.0095,8.5068c-1.0569-4.0175-1.6907-7.8945-1.7971-11.3279 l-0.2559-7.3003l-0.0913-156.1992v-0.0089l-66.1304,100.5273c-5.4954,5.905-2.7654,18.0875,6.0859,27.0636l10.0852,10.2329 c-2.6653,7.0491-5.1431,14.0358-7.4382,20.9452c-1.8955,5.7074-3.6643,11.3607-5.2969,16.9474 c-0.0969,0.3312-0.196,0.6636-0.292,0.9943c-0.3301,1.1389-0.6504,2.2729-0.9692,3.4062 c-0.1509,0.5362-0.3027,1.0729-0.4512,1.6077c-0.2812,1.0141-0.5552,2.0245-0.8274,3.0338 c-0.176,0.653-0.3511,1.3052-0.5232,1.9561c-0.2451,0.9258-0.4854,1.849-0.7224,2.7705c-0.189,0.7341-0.3748,1.4663-0.5586,2.1976 c-0.2148,0.8542-0.4275,1.7073-0.6355,2.5577c-0.1965,0.8035-0.3875,1.6039-0.5779,2.404 c-0.1863,0.7823-0.3728,1.5647-0.553,2.3436c-0.2048,0.8845-0.4019,1.7642-0.5989,2.6442c-0.1565,0.698-0.3154,1.3976-0.467,2.0927 c-0.2205,1.0113-0.4307,2.0162-0.6409,3.0212c-0.1177,0.563-0.2405,1.129-0.355,1.69c-0.3198,1.5665-0.6287,3.1262-0.9231,4.6768 c-5.1631,27.191-6.2771,51.4901-3.6213,71.7047h-0.043c3.5216,27.0579,13.8049,46.8002,30.2698,56.2802 c7.6182,4.3848,16.6533,6.5781,26.8198,6.5781c9.8755,0,20.8179-2.0703,32.5586-6.2119 c22.4424-7.916,46.8931-23.1074,70.7036-43.9297c3.9219-3.4264,7.8579-7.0585,11.8022-10.8665v-1.8502H267.187z"/>
    <path fill="#0075C9" d="M439.897,56.4009c-14.6709-8.46-34.6367-8.4414-57.7422,0.0537 c-21.2168,7.8003-44.6982,22.5986-67.9053,42.7944c-4.6562,4.0522-9.3203,8.3566-13.981,12.8462 c0.7139,0.6834,1.4282,1.3783,2.1428,2.0748l0.0005-0.0001c0.7661-0.2366,1.5454-0.4438,2.3345-0.6249 c0.0364-0.0084,0.0728-0.0167,0.1091-0.0249c0.7649-0.1727,1.54-0.3182,2.3237-0.4374c0.0657-0.01,0.1313-0.0185,0.1973-0.0281 c0.7705-0.1126,1.5493-0.201,2.3357-0.2608c0.0674-0.0051,0.1353-0.0074,0.2026-0.0122c0.8027-0.0562,1.6118-0.0895,2.428-0.0895 c0.7422,0,1.4866,0.0239,2.2319,0.0687c0.1719,0.0103,0.3442,0.0319,0.5161,0.0445c0.5801,0.0427,1.1602,0.0894,1.7412,0.1587 c0.1641,0.0195,0.3281,0.0484,0.4922,0.0701c0.5955,0.0786,1.1909,0.1627,1.7864,0.2686c0.1284,0.0228,0.2563,0.0521,0.3848,0.0762 c0.636,0.1193,1.2715,0.2479,1.906,0.3979c0.0869,0.0205,0.1736,0.0449,0.2605,0.066c0.6794,0.165,1.3582,0.3434,2.0349,0.5428 c0.0459,0.0135,0.0913,0.0286,0.1372,0.0423c0.7178,0.2141,1.4336,0.445,2.1465,0.697c0.0151,0.0053,0.03,0.011,0.0449,0.0164 c1.4905,0.5285,2.9688,1.1382,4.4282,1.8275l0.001,0.0004c0.0012-0.001,0.0024-0.0021,0.0037-0.0031 c9.1316-7.9163,18.2351-14.8828,27.126-20.7811c0.0115-0.0077,0.0232-0.0149,0.0347-0.0226 c1.2568-0.8334,2.5095-1.6459,3.7571-2.4363c0.052-0.0329,0.1035-0.0634,0.1553-0.0962c1.207-0.763,2.4099-1.5081,3.6074-2.2302 c0.1047-0.0632,0.2083-0.1215,0.313-0.1844c1.1436-0.6866,2.2839-1.3592,3.418-2.0078c0.1736-0.0994,0.345-0.1905,0.5183-0.2889 c1.0623-0.6029,2.1218-1.1966,3.175-1.7656c0.2756-0.149,0.5479-0.2854,0.823-0.4321c0.9495-0.5062,1.8982-1.0099,2.8396-1.4879 c0.3477-0.1766,0.6902-0.3373,1.0366-0.51c0.8628-0.4301,1.7263-0.8619,2.5815-1.2678c0.4788-0.2272,0.9509-0.4338,1.4272-0.6534 c0.718-0.331,1.4387-0.6701,2.1509-0.9836c0.6758-0.2974,1.3428-0.5694,2.0132-0.851c0.5051-0.2121,1.0146-0.4374,1.5166-0.6404 c1.1704-0.4735,2.332-0.9225,3.4844-1.3462c8.9023-3.2729,16.9746-4.9194,23.7949-4.9194c5.4209,0,10.0508,1.0405,13.6758,3.1309 c8.7061,5.02,15.1523,17.665,18.1514,35.6064c3.4854,20.8447,2.1562,47.2539-3.8418,76.3726 c-0.3474,1.6863-0.719,3.3903-1.1025,5.1033c-0.1155,0.5153-0.2363,1.0344-0.355,1.5521c-0.2874,1.2535-0.584,2.5135-0.8901,3.7804 c-0.1313,0.543-0.262,1.0854-0.3967,1.6309c-0.3765,1.5234-0.7656,3.0557-1.1687,4.5975 c-0.0605,0.2309-0.1167,0.4588-0.1777,0.6901c-0.4658,1.7668-0.9524,3.5477-1.4529,5.3376 c-0.1426,0.5097-0.291,1.0232-0.4363,1.5347c-0.3569,1.2555-0.7227,2.5168-1.0959,3.783 c-2.0613,6.9904-4.3787,14.1412-6.9348,21.4228c-5.677,16.1713-12.5325,32.9811-20.4578,50.1182 c-0.0002,0.0009-0.0007,0.0019-0.0007,0.0019l-29.6577-84.6062l-0.0027-0.0077c-2.9944-0.7701-5.8958-1.3184-8.6245-1.5913 c-0.9094-0.0909-1.7998-0.1513-2.668-0.1791l-3.8328-0.1332l-3.8328-0.1332l-154.6208,0.0217h-0.1104l13.1165,13.1982 l17.3503,17.4581l131.6284,132.4465l17.3899,17.4979l35.3767,35.5966h0.0176l0.0029-0.0065l12.5764-28.5554l6.2898-14.281 l-0.7859-2.2418l-18.4202-52.5497l0.001-0.0017c10.8533-21.4864,20.2253-42.7386,27.9224-63.2054 c2.6675-7.0939,5.1321-14.0908,7.3828-20.97c0.5742-1.7549,1.1521-3.5119,1.6982-5.251c0.0649-0.2064,0.1262-0.4106,0.1907-0.6168 c0.6731-2.1538,1.3213-4.293,1.9509-6.4209c0.1221-0.4122,0.2463-0.8256,0.3667-1.2368c0.6521-2.2286,1.28-4.4424,1.8833-6.6403 c0.1128-0.4108,0.2207-0.8184,0.3318-1.228c0.5439-2.0073,1.0686-4.0021,1.571-5.982c0.0757-0.2983,0.1553-0.5992,0.23-0.8968 c0.5396-2.1486,1.0493-4.2771,1.5386-6.3914c0.1101-0.4754,0.2175-0.9487,0.325-1.4224c0.4863-2.143,0.9563-4.2745,1.3899-6.3799 C479.6606,126.355,469.7642,73.6245,439.897,56.4009z"/>
    <path fill="#00D2B8" d="M446.8105,430.4445l23.1519-7.4406c3.8472,25.6118,3.981,49.2676,0.3076,69.0663 c-4.6123,24.8623-14.9746,42.5908-29.9678,51.2705c-7.6416,4.4238-16.5391,6.5898-26.4033,6.5898 c-27.1855,0-61.7275-16.4453-97.6748-47.3789c-5.0562-4.3511-10.125-8.9729-15.1912-13.8439 c-0.6233-0.5993-1.2466-1.2126-1.8699-1.8195l35.7546,0.0473c32.0713,26.7672,72.5505,47.6796,93.3601,35.6346 C442.8564,514.131,453.8882,482.1209,446.8105,430.4445z M204.4888,358.3025l0.2559,7.3003 c0.1064,3.4335,0.7402,7.3104,1.7971,11.3279c-0.0276-0.0713-0.0354-0.1403-0.0354-0.2116c0,0.069,0.0327,0.1452,0.0442,0.2147 l170.1394,60.3713l42.5303-18.9622l0.0164-0.0513L225.8696,223.7133l-21.4722-21.61L204.4888,358.3025z M359.1287,202.0727 L359.1287,202.0727l3.8328,0.1332l3.8328,0.1332c0.8682,0.0278,1.7585,0.0881,2.668,0.1791 c2.7288,0.2729,5.6301,0.8212,8.6245,1.5913l-8.4133-24.0131l-38.4856-38.4451c-8.8997-8.8729-21.0107-11.6317-26.8635-6.1155 l-99.9268,66.5585h0.1104L359.1287,202.0727z"/>
</svg>
