<svg class="logo {{ include.class }}" xmlns="http://www.w3.org/2000/svg" width="504" height="96" viewBox="0 0 504 96">
    <title>{{ site.title }}</title>
    <path id="logo-text__over" fill="#0081C6" d="M143.4071,35.9537c1.1033-3.4652,2.7585-6.5323,4.9666-9.2018 c2.2066-2.669,4.9532-4.7994,8.2394-6.3913c3.2847-1.5904,7.1094-2.3871,11.4732-2.3871c4.3628,0,8.188,0.7967,11.4736,2.3871 c3.2847,1.5919,6.0313,3.7223,8.2394,6.3913c2.2066,2.6695,3.8623,5.7366,4.9666,9.2018 c1.1033,3.4652,1.6557,7.0723,1.6557,10.8189c0,3.7476-0.5524,7.3537-1.6557,10.8194c-1.1043,3.4647-2.76,6.5328-4.9666,9.2013 c-2.2081,2.6695-4.9547,4.7871-8.2394,6.3528c-3.2857,1.5657-7.1109,2.349-11.4736,2.349c-4.3638,0-8.1885-0.7833-11.4732-2.349 c-3.2862-1.5657-6.0328-3.6833-8.2394-6.3528c-2.2081-2.6685-3.8633-5.7366-4.9666-9.2013 c-1.1048-3.4657-1.6557-7.0718-1.6557-10.8194C141.7514,43.026,142.3023,39.4189,143.4071,35.9537z M150.1446,54.9729 c0.7186,2.6952,1.8481,5.1214,3.388,7.2775c1.5405,2.1562,3.5156,3.888,5.9294,5.1975c2.4123,1.3085,5.2865,1.9633,8.6241,1.9633 c3.3366,0,6.2108-0.6548,8.6246-1.9633c2.4123-1.3095,4.389-3.0414,5.929-5.1975c1.54-2.1562,2.669-4.5823,3.388-7.2775 c0.7186-2.6942,1.0781-5.428,1.0781-8.2003c0-2.7724-0.3595-5.5056-1.0781-8.2008c-0.7191-2.6952-1.8481-5.1209-3.388-7.2765 c-1.54-2.1562-3.5166-3.889-5.929-5.198c-2.4138-1.309-5.288-1.9633-8.6246-1.9633c-3.3376,0-6.2118,0.6543-8.6241,1.9633 c-2.4138,1.309-4.389,3.0419-5.9294,5.198c-1.54,2.1557-2.6695,4.5813-3.388,7.2765c-0.7195,2.6952-1.0781,5.4285-1.0781,8.2008 C149.0665,49.5449,149.425,52.2787,150.1446,54.9729z M211.6703,74.2626l-14.785-39.8103h7.3151l11.1651,33.1886h0.1543 l10.8585-33.1886h6.8522l-14.5536,39.8103H211.6703z M265.8795,71.7217c-2.9771,2.259-6.7256,3.3875-11.2417,3.3875 c-3.1838,0-5.9433-0.5133-8.2785-1.54c-2.3362-1.0257-4.2995-2.4638-5.8909-4.3123c-1.5914-1.8476-2.7852-4.0542-3.5804-6.6218 c-0.7962-2.5666-1.2452-5.3637-1.3471-8.3932c0-3.0285,0.4619-5.8009,1.3857-8.3161c0.9238-2.5152,2.2204-4.6976,3.889-6.5456 c1.6676-1.8481,3.6437-3.2847,5.9294-4.3123c2.2828-1.0262,4.7861-1.54,7.507-1.54c3.5428,0,6.4804,0.7314,8.8175,2.1947 c2.3352,1.4628,4.2085,3.3242,5.6208,5.5828c1.4114,2.2595,2.3876,4.7233,2.9266,7.3918c0.539,2.6705,0.7566,5.2114,0.6538,7.6237 h-29.7995c-0.0524,1.7457,0.1533,3.4014,0.6152,4.9671c0.4629,1.5657,1.2057,2.9524,2.2333,4.158 c1.0266,1.2067,2.3352,2.169,3.9276,2.8871c1.5904,0.72,3.4647,1.0781,5.6208,1.0781c2.7724,0,5.0442-0.6409,6.8147-1.9247 c1.7714-1.2828,2.9385-3.2342,3.5043-5.8523h6.4675C270.7813,66.0999,268.8566,69.4627,265.8795,71.7217z M264.3009,46.1564 c-0.5905-1.3857-1.3857-2.5795-2.3866-3.5804c-1.0009-1.0009-2.1829-1.7966-3.5418-2.3871 c-1.361-0.5895-2.8624-0.8857-4.5052-0.8857c-1.6943,0-3.2224,0.2962-4.5813,0.8857c-1.3609,0.5905-2.529,1.399-3.5043,2.4257 c-0.9752,1.0271-1.7457,2.2205-2.3095,3.5804c-0.5658,1.361-0.8991,2.8109-1.0009,4.3509h22.8691 C265.2376,49.0059,264.8904,47.5431,264.3009,46.1564z M283.4354,34.4523v8.3932h0.1543 c1.5904-3.2342,3.5418-5.6213,5.8523-7.1613c2.3105-1.54,5.2361-2.2585,8.7789-2.1562v6.9304 c-2.619,0-4.8513,0.3595-6.6999,1.0781c-1.8476,0.7195-3.3371,1.7709-4.4656,3.1571c-1.1305,1.3857-1.9524,3.0681-2.4648,5.0432 c-0.5133,1.9771-0.7695,4.249-0.7695,6.8147v17.7112h-6.5456V34.4523H283.4354z"/>
    <path id="logo-text__react" fill="#0075C9" d="M302.5322,19.2825h26.2577c6.057,0,10.5998,1.309,13.6293,3.9271 c3.0285,2.6181,4.5438,6.2637,4.5438,10.9346c0,2.6181-0.3847,4.7871-1.1552,6.5066c-0.7695,1.7205-1.6686,3.1067-2.6952,4.1585 c-1.0276,1.0524-2.0404,1.809-3.0414,2.2709c-1.0009,0.4629-1.7328,0.7705-2.1948,0.9248v0.1533 c0.821,0.1039,1.7061,0.36,2.6566,0.7705c0.9495,0.4115,1.8347,1.0662,2.6566,1.9633c0.8209,0.8991,1.5014,2.0671,2.0404,3.5043 c0.5391,1.4371,0.8091,3.2332,0.8091,5.3894c0,3.2342,0.2423,6.1737,0.7309,8.8175c0.4876,2.6448,1.2443,4.5309,2.2719,5.6594 h-10.3189c-0.7191-1.18-1.1424-2.4895-1.27-3.9276c-0.1286-1.4361-0.1929-2.8218-0.1929-4.158 c0-2.5142-0.1533-4.6832-0.4619-6.5061c-0.3076-1.8219-0.8734-3.3371-1.6943-4.5438c-0.8219-1.2057-1.9376-2.0909-3.349-2.6566 c-1.4124-0.5638-3.2224-0.8466-5.429-0.8466h-14.1683v22.6387h-9.6256V19.2825z M312.1578,44.3088h15.7855 c3.08,0,5.4151-0.7319,7.0075-2.1947c1.5904-1.4633,2.3866-3.6581,2.3866-6.5837c0-1.7447-0.2571-3.1695-0.7695-4.2737 c-0.5143-1.1033-1.2205-1.9638-2.1176-2.58c-0.899-0.6157-1.9257-1.0262-3.0809-1.2319c-1.1542-0.2042-2.348-0.3081-3.5804-0.3081 h-15.6312V44.3088z M360.8228,56.6286c0,1.54,0.2176,3.0295,0.6548,4.4666c0.4352,1.4381,1.0899,2.6952,1.9633,3.7733 c0.8723,1.0781,1.9762,1.9386,3.3114,2.5795c1.3342,0.6419,2.9266,0.9624,4.7742,0.9624c2.5666,0,4.6318-0.5509,6.1985-1.6557 c1.5657-1.1028,2.7338-2.7585,3.5043-4.9661h8.3161c-0.4619,2.1562-1.2581,4.0809-2.3876,5.7752 c-1.1295,1.6933-2.4905,3.1185-4.0809,4.2738c-1.5914,1.1542-3.3757,2.0286-5.3518,2.618 c-1.9761,0.5895-4.0423,0.8852-6.1985,0.8852c-3.1314,0-5.9037-0.5133-8.316-1.54c-2.4133-1.0266-4.4547-2.4638-6.1223-4.3123 c-1.6685-1.8476-2.9257-4.0542-3.7733-6.6218c-0.8466-2.5666-1.27-5.3904-1.27-8.4703c0-2.8228,0.449-5.5061,1.3471-8.047 c0.8981-2.5419,2.1819-4.7742,3.8504-6.6994c1.6675-1.9252,3.6833-3.4518,6.0452-4.5818 c2.3599-1.1285,5.0304-1.6938,8.0074-1.6938c3.1314,0,5.9413,0.6543,8.4328,1.9633c2.4885,1.309,4.5547,3.0419,6.1985,5.198 c1.6418,2.1557,2.8356,4.6328,3.5804,7.4308c0.7438,2.7981,0.9356,5.6861,0.5776,8.6622H360.8228z M381.3063,50.8535 c-0.1039-1.3857-0.3986-2.7199-0.8862-4.0037c-0.4886-1.2828-1.1552-2.3995-2.0019-3.35c-0.8466-0.949-1.8743-1.719-3.08-2.31 c-1.2067-0.5895-2.5547-0.8857-4.0433-0.8857c-1.54,0-2.9385,0.2695-4.1966,0.8086s-2.3362,1.2838-3.2332,2.2333 c-0.899,0.95-1.6171,2.0667-2.1562,3.3495c-0.539,1.2838-0.8358,2.6695-0.8862,4.158H381.3063z M428.5855,65.4075 c0,1.0781,0.1414,1.8476,0.4233,2.3095c0.2819,0.4629,0.8338,0.6933,1.6557,0.6933c0.2562,0,0.5648,0,0.9248,0 c0.358,0,0.7695-0.0504,1.2314-0.1543v6.0837c-0.3076,0.1019-0.7062,0.2176-1.1938,0.3462 c-0.4876,0.1276-0.9881,0.2433-1.5014,0.3472c-0.5133,0.1019-1.0276,0.179-1.54,0.2305 c-0.5133,0.0504-0.9505,0.0771-1.3085,0.0771c-1.7981,0-3.2867-0.36-4.4666-1.0781c-1.1809-0.7181-1.9514-1.9752-2.3105-3.7733 c-1.7457,1.6943-3.888,2.9266-6.4289,3.6961c-2.5419,0.7705-4.9938,1.1552-7.3537,1.1552c-1.7981,0-3.5171-0.2443-5.1599-0.7319 c-1.6429-0.4866-3.0928-1.2057-4.3499-2.1562c-1.2591-0.9485-2.26-2.1552-3.0038-3.619c-0.7448-1.4628-1.1166-3.169-1.1166-5.1204 c0-2.4638,0.449-4.4666,1.3481-6.0066c0.8971-1.54,2.079-2.7456,3.5418-3.619c1.4628-0.8724,3.1057-1.5014,4.9285-1.8861 c1.8219-0.3857,3.6576-0.6805,5.5052-0.8862c1.5914-0.3076,3.1057-0.5252,4.5438-0.6538 c1.4361-0.1276,2.7071-0.3472,3.8118-0.6548c1.1028-0.3086,1.9752-0.7824,2.6181-1.4243 c0.6409-0.6419,0.9623-1.6043,0.9623-2.8881c0-1.1285-0.27-2.0528-0.8091-2.7719c-0.539-0.7186-1.2067-1.271-2.0019-1.6557 c-0.7962-0.3852-1.6824-0.6414-2.6566-0.77c-0.9752-0.1276-1.9-0.1929-2.7724-0.1929c-2.4637,0-4.4923,0.5138-6.0827,1.5405 c-1.5924,1.0271-2.4905,2.6176-2.6952,4.7737h-8.778c0.1533-2.5656,0.7695-4.6971,1.8476-6.3908 c1.0781-1.6943,2.4509-3.0537,4.1194-4.0814c1.6676-1.0262,3.5547-1.7447,5.6604-2.1562c2.1037-0.41,4.2599-0.6157,6.4675-0.6157 c1.9504,0,3.8761,0.2057,5.7751,0.6157c1.899,0.4115,3.6061,1.0781,5.1214,2.0024c1.5133,0.9238,2.7338,2.1176,3.6576,3.5804 c0.9238,1.4633,1.3857,3.2476,1.3857,5.3513V65.4075z M419.8076,54.3191c-1.3352,0.8733-2.9781,1.3985-4.9285,1.5785 c-1.9514,0.18-3.9019,0.45-5.8523,0.8081c-0.9238,0.1543-1.8228,0.3729-2.6952,0.6548c-0.8733,0.2829-1.6428,0.6676-2.3094,1.1552 c-0.6676,0.4886-1.1938,1.1295-1.5786,1.9247c-0.3857,0.7962-0.5776,1.7595-0.5776,2.8881c0,0.9752,0.2809,1.7971,0.8466,2.4638 c0.5648,0.6676,1.2443,1.1938,2.0405,1.5785c0.7952,0.3848,1.6675,0.6548,2.618,0.8091c0.9495,0.1533,1.81,0.2305,2.5795,0.2305 c0.9752,0,2.0276-0.1276,3.1571-0.3848c1.1295-0.2562,2.1947-0.6933,3.1957-1.3095c1.0019-0.6162,1.8357-1.3976,2.5033-2.348 c0.6666-0.9495,1.0009-2.1176,1.0009-3.5043V54.3191z M463.3907,47.7735c-0.359-2.4638-1.3471-4.3242-2.9642-5.5828 c-1.6171-1.2571-3.6576-1.8866-6.1213-1.8866c-1.1305,0-2.3372,0.1929-3.62,0.5776c-1.2838,0.3852-2.4638,1.1048-3.5419,2.1562 c-1.0781,1.0524-1.9771,2.5162-2.6952,4.3895c-0.7191,1.8743-1.0781,4.3252-1.0781,7.3537c0,1.6438,0.1928,3.2857,0.5776,4.9285 c0.3847,1.6428,1.0009,3.1057,1.8486,4.3885c0.8466,1.2838,1.9366,2.3233,3.2728,3.1185 c1.3343,0.7972,2.9514,1.1938,4.8504,1.1938c2.5666,0,4.6842-0.7952,6.3528-2.3866c1.6676-1.5914,2.7071-3.8237,3.1185-6.6999 h8.7789c-0.8219,5.1857-2.7852,9.1518-5.8909,11.8975c-3.1066,2.7466-7.2261,4.1195-12.3593,4.1195 c-3.1314,0-5.8909-0.5272-8.2775-1.5786c-2.3866-1.0514-4.4023-2.4895-6.0452-4.3123c-1.6429-1.8219-2.8871-3.9909-3.7347-6.5071 c-0.8466-2.5142-1.27-5.2361-1.27-8.1618c0-2.9771,0.4105-5.7751,1.2324-8.3932c0.8199-2.6185,2.0523-4.8899,3.6961-6.8152 c1.6418-1.9247,3.6823-3.4385,6.1213-4.5433c2.438-1.1033,5.3004-1.6552,8.5861-1.6552c2.3095,0,4.5042,0.2957,6.5832,0.8852 c2.079,0.591,3.9276,1.4767,5.5447,2.6566c1.6171,1.1814,2.9375,2.67,3.9652,4.4661c1.0266,1.7976,1.6428,3.9276,1.8485,6.3913 H463.3907z M473.7868,34.4523h6.6218V22.5168h8.7789v11.9355h7.9313v6.5451h-7.9313v21.253c0,0.9238,0.0386,1.72,0.1147,2.3866 c0.0771,0.6676,0.2571,1.2324,0.539,1.6943s0.7052,0.8081,1.2709,1.0395c0.5648,0.2314,1.3343,0.3462,2.3105,0.3462 c0.6162,0,1.2314-0.0119,1.8476-0.0386c0.6162-0.0247,1.2324-0.1147,1.8486-0.269v6.7761 c-0.9762,0.1029-1.9257,0.2047-2.8495,0.3086c-0.9238,0.1019-1.8743,0.1533-2.8495,0.1533c-2.3095,0-4.1709-0.2186-5.5823-0.6538 c-1.4124-0.4362-2.5162-1.0781-3.3114-1.9257c-0.7962-0.8466-1.3352-1.9119-1.6171-3.1957 c-0.2829-1.2828-0.45-2.7456-0.5005-4.3895V40.9974h-6.6218V34.4523z"/>
    <path fill="#55DDCA" d="M23.9503,34.3889c-0.4628-1.5056-0.8767-2.9888-1.2388-4.4435 c-0.3016-1.2115-0.5687-2.404-0.7973-3.5725c-1.1347-5.7985-1.3447-11.1248-0.6075-15.4032 c0.8025-4.6593,2.7148-7.9834,5.5296-9.6128c5.7307-3.3179,15.4534,0.0934,25.3739,8.9021 c0.5936,0.5271,1.1898,1.0791,1.7875,1.6514c0.0006,0.0006,0.0012,0.0012,0.0018,0.0018l0,0 c0.1371,0.1312,0.2743,0.2647,0.4115,0.3985l0.0001,0c-0.7191,0.2221-1.3818,0.5705-1.9545,1.0347l-2.1404,1.4257 c-0.3899-0.3652-0.7789-0.7211-1.1665-1.0653c-4.2694-3.7912-8.5362-6.5453-12.3389-7.9647 c-3.2728-1.2218-5.9953-1.3618-7.6653-0.3951c-1.5709,0.9094-2.7416,3.1845-3.2966,6.4063 c-0.6429,3.7318-0.4394,8.4815,0.5885,13.7356c0.2123,1.0851,0.4604,2.1931,0.7399,3.319 c0.3525,1.4197,0.7572,2.8691,1.212,4.3425l-3.23,4.9101C24.725,36.8234,24.3223,35.5992,23.9503,34.3889z M36.001,62.7768 c0.6241,2.41,2.0057,5.1188,3.4929,6.6003l10.6637,10.6697l23.7113,0.0314l2.9757-9.3499l-8.1681,3.6418L36.001,62.7768z"/>
    <path fill="#00A4E4" d="M28.0993,63.8337c0.0421-0.1406,0.0881-0.2833,0.1311-0.4244l0.4218,0.428 c0.4081,0.4141,0.9049,0.7301,1.453,0.9243l2.821,0.9995c0.3833,1.0178,0.8483,2.0129,1.3664,2.9376 c-2.51-0.3579-4.9052-0.7888-7.172-1.291c0.0422-0.1694,0.082-0.3372,0.1258-0.5078c0.0171-0.0666,0.0339-0.1331,0.0513-0.2 c0.1164-0.4483,0.2373-0.8996,0.3643-1.3547c0.0054-0.0193,0.0111-0.0387,0.0165-0.058c0.1297-0.4636,0.2648-0.9305,0.4052-1.4006 C28.0888,63.8689,28.094,63.8514,28.0993,63.8337z M22.8195,65.5881c0.0455-0.177,0.0917-0.3543,0.1387-0.5321 c0.0331-0.125,0.0667-0.2503,0.1005-0.3757c0.0522-0.1938,0.1049-0.3879,0.1589-0.5827c0.0285-0.1027,0.0577-0.2058,0.0866-0.3088 c0.0612-0.2176,0.1228-0.4354,0.1861-0.6542c0.0184-0.0635,0.0375-0.1273,0.0561-0.191c0.1076-0.3684,0.2183-0.7383,0.332-1.1097 c-0.9153-0.2641-1.8028-0.5416-2.6581-0.8339c-5.201-1.7776-9.5526-4.0894-12.584-6.6855 c-2.5968-2.224-4.0271-4.5014-4.0271-6.4132c0-4.7651,7.8483-9.6343,15.6265-12.3461c1.1834-0.4126,2.4248-0.8013,3.7145-1.1665 c-0.4628-1.5056-0.8767-2.9888-1.2388-4.4435c-1.3784,0.3922-2.7122,0.8111-3.993,1.2577C6.9976,35.2895,0,41.5319,0,47.9016 c0,3.327,1.9498,6.7552,5.6384,9.9142c3.4705,2.972,8.3431,5.5814,14.0912,7.5462c0.9382,0.3207,1.9119,0.6244,2.9155,0.9128 c0.0218-0.0878,0.0451-0.1765,0.0672-0.2645C22.7475,65.8697,22.7832,65.7291,22.8195,65.5881z M27.1774,28.8069 c0.3525,1.4197,0.7572,2.8691,1.212,4.3425l3.479-5.2885C30.2652,28.145,28.7,28.4609,27.1774,28.8069z M74.3332,27.5987 c1.5202,0.807,2.8793,1.7744,3.8962,2.8058l1.6727,1.6897c0.0717-0.2432,0.1419-0.4854,0.2105-0.7265 c0.0279-0.0982,0.0564-0.1969,0.0838-0.2947c0.0961-0.3438,0.1896-0.6858,0.279-1.0251c0.0117-0.0444,0.0225-0.0882,0.0341-0.1325 c0.0774-0.2961,0.1522-0.5904,0.2245-0.883c0.0143-0.0578,0.0279-0.1152,0.0421-0.1729 C78.7035,28.3812,76.5507,27.9603,74.3332,27.5987z M107.8959,47.9015c0-3.2524-1.9187-6.5726-5.5489-9.6015 c-3.3334-2.7815-8.0482-5.2683-13.6348-7.1914c-1.1203-0.3857-2.2803-0.7502-3.4737-1.0947 c-0.0292,0.119-0.0579,0.2376-0.0879,0.3571c-0.0144,0.0572-0.0296,0.1149-0.0442,0.1722 c-0.0965,0.3802-0.1973,0.7634-0.3017,1.1489c-0.0213,0.0787-0.0421,0.157-0.0637,0.2358 c-0.1159,0.4221-0.2365,0.8473-0.3617,1.2753c-0.0231,0.079-0.047,0.1584-0.0704,0.2375 c-0.0994,0.3361-0.2017,0.6739-0.3068,1.0133c1.1026,0.3194,2.1747,0.6565,3.2096,1.0128 c5.0622,1.7426,9.2748,3.9461,12.1823,6.3722c2.5102,2.0946,3.8926,4.2476,3.8926,6.0625c0,3.1916-4.3277,8.0327-13.731,11.8308 l-0.0038,4.9429C100.9248,60.4762,107.8959,54.1516,107.8959,47.9015z M76.791,51.9669l3.5375,10.0927l0.1509,0.4305 l-1.208,2.7427l-2.4153,5.4842l8.8522-2.845l0.019-24.434l-3.5737-3.61C80.6753,43.7588,78.8754,47.8404,76.791,51.9669z  M68.9462,29.5856l5.6951,16.2483c1.5221-3.2912,2.8387-6.5196,3.929-9.6254l-3.0705-3.1017 C74.0018,31.5875,71.3453,30.2068,68.9462,29.5856z M76.8555,70.7183L76.8555,70.7183l0.0006-0.0013v0L76.8555,70.7183z  M68.9448,29.5839l0.0005,0.0015l0.0009,0.0002L68.9448,29.5839z"/>
    <path fill="#0081C6" d="M47.6461,83.8971c-0.8586,0.7099-1.7003,1.3605-2.5245,1.9598v-0.0202v0 c-2.9893,2.1729-5.7352,3.6344-8.1205,4.5012c-0.0012,0.0004-0.0023,0.0009-0.0035,0.0013 c-0.1708,0.0621-0.3394,0.1204-0.5065,0.1764c-0.0226,0.0076-0.0453,0.0152-0.0678,0.0227 c-0.1585,0.0525-0.3153,0.1023-0.4703,0.1494c-0.0263,0.008-0.0522,0.0156-0.0784,0.0234 c-0.1554,0.0465-0.3095,0.091-0.4612,0.1321c-0.0119,0.0032-0.0236,0.0061-0.0354,0.0093 c-0.4914,0.132-0.9637,0.2359-1.4154,0.3131c-0.0095,0.0016-0.0193,0.0036-0.0287,0.0052 c-0.118,0.0199-0.2333,0.0363-0.3485,0.0526c-0.0503,0.0071-0.101,0.0147-0.1508,0.0212 c-0.1025,0.0132-0.2032,0.0241-0.3033,0.0344c-0.0602,0.0062-0.12,0.0121-0.1793,0.0173 c-0.0927,0.0081-0.1846,0.0149-0.2751,0.0205c-0.0648,0.004-0.1284,0.0068-0.1921,0.0095 c-0.0845,0.0036-0.1688,0.007-0.2513,0.0083c-0.0686,0.0011-0.1355,0.0003-0.2027-0.0001 c-0.0756-0.0004-0.1521-0.0001-0.226-0.0024c-0.0896-0.0028-0.1763-0.0087-0.2632-0.0143 c-0.0902-0.0058-0.179-0.013-0.2664-0.0218c-0.0876-0.0088-0.1752-0.0176-0.26-0.0292c-0.054-0.0074-0.1059-0.017-0.1588-0.0256 c-0.0745-0.0121-0.1487-0.0245-0.2208-0.0389c-0.052-0.0104-0.1025-0.0221-0.1533-0.0337 c-0.0702-0.016-0.1394-0.0329-0.2072-0.0511c-0.0482-0.013-0.0957-0.0265-0.1427-0.0406 c-0.0683-0.0205-0.1348-0.0425-0.2004-0.0653c-0.0425-0.0148-0.0853-0.0293-0.1267-0.0451 c-0.0706-0.0269-0.1387-0.0559-0.206-0.0856c-0.033-0.0145-0.0671-0.0281-0.0993-0.0433 c-0.0979-0.0462-0.1928-0.0948-0.2833-0.147c-4.1278-2.3806-4.4251-11.6119-2.8885-19.7046 c0.0769-0.4047,0.1608-0.8148,0.248-1.2274c0.0195-0.0924,0.0391-0.1847,0.0591-0.2774c0.0894-0.4135,0.1825-0.8298,0.282-1.2506 c0.0067-0.0283,0.0139-0.057,0.0207-0.0853c0.058-0.2438,0.1213-0.4913,0.1827-0.7373c0.0422-0.1694,0.082-0.3372,0.1258-0.5078 c0.0172-0.0667,0.0339-0.1331,0.0513-0.1999c0.1164-0.4483,0.2373-0.8996,0.3643-1.3547 c0.0054-0.0193,0.0111-0.0387,0.0165-0.0581c0.1297-0.4636,0.2648-0.9305,0.4052-1.4006 c0.0053-0.0177,0.0104-0.0352,0.0157-0.0529c0.0421-0.1406,0.0881-0.2833,0.1311-0.4244 c0.4103-1.3453,0.8596-2.7127,1.3525-4.0997l1.805,1.8315l4.6111,1.6338c-0.203-0.7716-0.3247-1.5162-0.3451-2.1756l-0.0491-1.402 l-0.0175-29.9986v-0.0017L22.8866,48.5035c-1.0554,1.1341-0.5311,3.4738,1.1688,5.1977l1.9369,1.9653 c-0.5119,1.3538-0.9877,2.6956-1.4285,4.0226c-0.364,1.0961-0.7037,2.1819-1.0173,3.2548 c-0.0186,0.0636-0.0377,0.1275-0.0561,0.191c-0.0634,0.2187-0.1249,0.4365-0.1861,0.6542 c-0.029,0.103-0.0581,0.2061-0.0866,0.3088c-0.054,0.1948-0.1066,0.3888-0.1589,0.5826 c-0.0338,0.1254-0.0674,0.2507-0.1005,0.3757c-0.0471,0.1778-0.0932,0.3551-0.1387,0.5321 c-0.0363,0.141-0.072,0.2816-0.1073,0.4221c-0.0413,0.164-0.0821,0.3279-0.122,0.4912c-0.0377,0.1543-0.0744,0.308-0.111,0.4617 c-0.0358,0.1502-0.0716,0.3005-0.1062,0.4501c-0.0393,0.1699-0.0772,0.3388-0.115,0.5078 c-0.0301,0.1341-0.0606,0.2684-0.0897,0.4019c-0.0423,0.1942-0.0827,0.3872-0.1231,0.5802 c-0.0226,0.1081-0.0462,0.2168-0.0682,0.3246c-0.0614,0.3009-0.1207,0.6004-0.1773,0.8982 c-0.9916,5.2221-1.2055,9.8889-0.6955,13.7711H21.096c0.6763,5.1965,2.6513,8.9881,5.8134,10.8088 c1.4631,0.8421,3.1983,1.2634,5.1508,1.2634c1.8966,0,3.9981-0.3976,6.253-1.193c4.3101-1.5203,9.006-4.4379,13.5789-8.4368 c0.7532-0.6581,1.5091-1.3556,2.2667-2.087v-0.3553H47.6461z"/>
    <path fill="#0075C9" d="M80.8157,1.216c-2.8176-1.6248-6.6521-1.6212-11.0896,0.0103 c-4.0748,1.4981-8.5845,4.3401-13.0414,8.2188c-0.8942,0.7782-1.79,1.6049-2.6851,2.4672 c0.1371,0.1312,0.2743,0.2647,0.4115,0.3985l0.0001,0c0.1471-0.0454,0.2968-0.0852,0.4483-0.12 c0.007-0.0016,0.014-0.0032,0.021-0.0048c0.1469-0.0332,0.2958-0.0611,0.4463-0.084c0.0126-0.0019,0.0252-0.0036,0.0379-0.0054 c0.148-0.0216,0.2976-0.0386,0.4486-0.0501c0.0129-0.001,0.026-0.0014,0.0389-0.0023c0.1542-0.0108,0.3096-0.0172,0.4663-0.0172 c0.1425,0,0.2855,0.0046,0.4286,0.0132c0.033,0.002,0.0661,0.0061,0.0991,0.0085c0.1114,0.0082,0.2228,0.0172,0.3344,0.0305 c0.0315,0.0037,0.063,0.0093,0.0945,0.0135c0.1144,0.0151,0.2287,0.0312,0.3431,0.0516c0.0247,0.0044,0.0492,0.01,0.0739,0.0146 c0.1221,0.0229,0.2442,0.0476,0.3661,0.0764c0.0167,0.0039,0.0333,0.0086,0.05,0.0127c0.1305,0.0317,0.2608,0.066,0.3908,0.1042 c0.0088,0.0026,0.0175,0.0055,0.0264,0.0081c0.1378,0.0411,0.2753,0.0855,0.4122,0.1339c0.0029,0.001,0.0058,0.0021,0.0086,0.0032 c0.2863,0.1015,0.5702,0.2186,0.8505,0.351l0.0002,0.0001l0.0007-0.0006c1.7538-1.5204,3.5021-2.8583,5.2096-3.9911 c0.0022-0.0015,0.0045-0.0029,0.0067-0.0043c0.2414-0.1601,0.482-0.3161,0.7216-0.4679c0.01-0.0063,0.0199-0.0122,0.0298-0.0185 c0.2318-0.1465,0.4628-0.2896,0.6928-0.4283c0.0201-0.0121,0.04-0.0233,0.0601-0.0354c0.2196-0.1319,0.4386-0.261,0.6564-0.3856 c0.0333-0.0191,0.0663-0.0366,0.0995-0.0555c0.204-0.1158,0.4075-0.2298,0.6098-0.3391c0.0529-0.0286,0.1052-0.0548,0.1581-0.083 c0.1824-0.0972,0.3646-0.194,0.5454-0.2858c0.0668-0.0339,0.1326-0.0648,0.1991-0.0979c0.1657-0.0826,0.3315-0.1655,0.4958-0.2435 c0.0919-0.0436,0.1826-0.0833,0.2741-0.1255c0.1379-0.0636,0.2763-0.1287,0.4131-0.1889 c0.1298-0.0571,0.2579-0.1094,0.3866-0.1634c0.097-0.0407,0.1949-0.084,0.2913-0.123c0.2248-0.0909,0.4479-0.1772,0.6692-0.2585 c1.7097-0.6286,3.26-0.9448,4.5699-0.9448c1.0411,0,1.9303,0.1998,2.6265,0.6013c1.672,0.9641,2.9101,3.3926,3.486,6.8383 c0.6694,4.0033,0.4141,9.0753-0.7378,14.6676c-0.0667,0.3239-0.1381,0.6511-0.2117,0.9801 c-0.0222,0.099-0.0454,0.1987-0.0682,0.2981c-0.0552,0.2407-0.1122,0.4827-0.171,0.726 c-0.0252,0.1043-0.0503,0.2085-0.0762,0.3132c-0.0723,0.2926-0.147,0.5869-0.2245,0.883 c-0.0116,0.0443-0.0224,0.0881-0.0341,0.1325c-0.0895,0.3393-0.1829,0.6813-0.279,1.0251 c-0.0274,0.0979-0.0559,0.1965-0.0838,0.2947c-0.0686,0.2411-0.1388,0.4834-0.2105,0.7265 c-0.3959,1.3425-0.8409,2.7159-1.3319,4.1143c-1.0903,3.1058-2.4069,6.3341-3.929,9.6254l-0.0001,0.0004l-5.6959-16.2489 l-0.0005-0.0015c-0.5751-0.1479-1.1323-0.2532-1.6564-0.3056c-0.1747-0.0175-0.3457-0.0291-0.5124-0.0344l-0.7361-0.0256 l-0.7361-0.0256l-29.6955,0.0042h-0.0212l2.5191,2.5348l3.3322,3.3529l25.2797,25.4368l3.3398,3.3605l6.7942,6.8364h0.0034 l0.0006-0.0013l2.4153-5.4842l1.208-2.7427l-0.1509-0.4305l-3.5377-10.0924l0.0002-0.0003 c2.0844-4.1265,3.8843-8.2081,5.3626-12.1388c0.5123-1.3624,0.9856-2.7062,1.4179-4.0274 c0.1103-0.337,0.2213-0.6745,0.3262-1.0085c0.0125-0.0396,0.0242-0.0789,0.0366-0.1185c0.1293-0.4136,0.2538-0.8245,0.3747-1.2332 c0.0234-0.0792,0.0473-0.1586,0.0704-0.2375c0.1252-0.428,0.2458-0.8532,0.3617-1.2753c0.0217-0.0789,0.0424-0.1572,0.0637-0.2358 c0.1045-0.3855,0.2052-0.7686,0.3017-1.1489c0.0145-0.0573,0.0298-0.1151,0.0442-0.1722 c0.1036-0.4126,0.2015-0.8214,0.2955-1.2275c0.0211-0.0913,0.0418-0.1822,0.0624-0.2732 c0.0934-0.4116,0.1837-0.8209,0.2669-1.2253C88.4524,14.6509,86.5518,4.5238,80.8157,1.216z"/>
    <path fill="#00D2B8" d="M82.1434,73.0523l4.4464-1.429c0.7389,4.9188,0.7646,9.462,0.0591,13.2644 c-0.8858,4.7749-2.8759,8.1797-5.7554,9.8467C79.4259,95.584,77.7171,96,75.8226,96c-5.2211,0-11.855-3.1584-18.7588-9.0993 c-0.9711-0.8356-1.9445-1.7233-2.9175-2.6588c-0.1197-0.1151-0.2394-0.2329-0.3591-0.3494l6.8668,0.0091 c6.1594,5.1407,13.9336,9.157,17.9301,6.8437C81.384,89.1246,83.5027,82.9769,82.1434,73.0523z M35.6047,59.1972l0.0491,1.402 c0.0204,0.6594,0.1422,1.404,0.3451,2.1756c-0.0053-0.0137-0.0068-0.0269-0.0068-0.0406c0,0.0133,0.0063,0.0279,0.0085,0.0412 l32.6759,11.5945l8.1681-3.6418l0.0031-0.0098L39.711,33.3489l-4.1238-4.1503L35.6047,59.1972z M65.3038,29.1927L65.3038,29.1927 l0.7361,0.0256l0.7361,0.0256c0.1667,0.0053,0.3377,0.0169,0.5124,0.0344c0.5241,0.0524,1.0813,0.1577,1.6564,0.3056 l-1.6158-4.6118l-7.3913-7.3835c-1.7092-1.7041-4.0352-2.2339-5.1592-1.1745L35.5872,29.1969h0.0212L65.3038,29.1927z"/>
</svg>
