<svg class="{{ include.class }}" xmlns="http://www.w3.org/2000/svg" width="600" height="600" viewBox="0 0 600 600"><path fill="#00D8FF" d="M350.4,300c0,27.7247-22.4753,50.2-50.2,50.2S250,327.7247,250,300 c0-27.7247,22.4753-50.2,50.2-50.2S350.4,272.2753,350.4,300z M581.0996,300c0,34.5049-40.7441,69.4092-106.333,91.0938 c-3.3912,1.1329-6.8783,2.2236-10.4365,3.2811c1.2621,5.1031,2.3839,10.1136,3.3457,15.0138 c6.1318,31.0166,7.0791,59.7803,2.7354,83.166c-4.6221,24.8789-15.0039,42.5996-30.0244,51.2461 c-7.626,4.3906-16.4971,6.5391-26.3301,6.5391c-27.1924,0-61.7422-16.4346-97.6807-47.3408 c-5.019-4.3172-10.0502-8.8997-15.0787-13.7288c-3.9443,3.808-7.8804,7.4401-11.8022,10.8665 c-23.8105,20.8223-48.2612,36.0137-70.7036,43.9297c-11.7407,4.1416-22.6831,6.2119-32.5586,6.2119 c-10.1665,0-19.2017-2.1934-26.8198-6.5781c-28.7471-16.5518-38.6914-64.3438-26.6011-127.8447 c1.2521-6.5803,2.7325-13.3055,4.4298-20.1519c-5.2343-1.4993-10.3137-3.0777-15.2096-4.7446 c-29.9399-10.25-55.3018-23.8398-73.3628-39.3066C29.4556,335.1982,19.2998,317.3369,19.2998,300 c0-16.8154,9.647-33.9595,27.8975-49.5796c16.9238-14.4844,40.9766-27.4009,69.5566-37.353 c6.6829-2.3264,13.64-4.5088,20.8276-6.5524c-1.5723-6.3111-2.965-12.5223-4.1572-18.6078 c-5.8911-30.2231-6.98-57.9536-3.1504-80.2051c4.1758-24.2651,14.1382-41.5845,28.8101-50.0854 c29.9126-17.3037,80.5249,0.4443,132.0918,46.3174c3.1094,2.7593,6.2319,5.6495,9.3617,8.6456 c4.6312-4.4582,9.2643-8.7138,13.8873-12.7345c23.2236-20.2051,46.7119-35.0049,67.9248-42.7969 c23.084-8.479,43.0479-8.4966,57.7324-0.0508c29.8184,17.2505,39.7227,69.9731,25.874,137.6099 c-0.8282,4.0229-1.7614,8.1209-2.7797,12.2763c6.1869,1.7839,12.2045,3.6704,18.019,5.6661 c29.1064,10.0439,53.6475,22.9897,70.9883,37.4453C571.1006,265.7642,581.0996,283.0557,581.0996,300z M330.1768,117.9531 c-4.2666,3.7106-8.5448,7.6385-12.8241,11.7502c16.0117,17.2688,32.0294,37.2764,47.4875,59.2966 c26.4152,2.4854,51.7266,6.4836,75.0999,11.8759c0.9153-3.7554,1.7578-7.46,2.5062-11.0956 c11.1758-54.5791,5.2734-100.6377-14.3555-111.9932c-8.1836-4.7056-21.498-4.0747-37.4658,1.7896 C372.125,86.3726,351.2217,99.6426,330.1768,117.9531z M402.796,300.2723c-7.2933-14.7157-15.3965-29.8027-24.2823-45.1634 c-8.6787-15.0246-17.7242-29.469-26.9955-43.1671c-16.757-1.2799-33.9354-1.9418-51.318-1.9418 c-17.1971,0-34.348,0.6713-51.1503,1.9558c-9.4418,13.8225-18.5767,28.326-27.2609,43.3494 c-8.6567,15.0226-16.6406,30.1707-23.8882,45.2463c7.2736,15.1158,15.2914,30.2971,23.9844,45.3362 c8.6705,14.9761,17.9016,29.5665,27.4883,43.5344c16.2759,1.0438,33.251,1.5779,50.8266,1.5779 c17.6205,0,34.8884-0.6156,51.5809-1.8093c9.0608-13.6171,18.0243-28.1008,26.8195-43.3782 C387.3941,330.5888,395.4861,315.3374,402.796,300.2723z M399.3906,357.8018c-5.647,9.8089-11.3701,19.3092-17.1504,28.488 c18.5531-2.2262,36.1195-5.2191,52.3396-8.9293c-4.9883-15.6988-11.2933-32.2309-18.8359-49.4105 C410.5898,337.8865,405.136,347.8553,399.3906,357.8018z M334.2818,414.2365C323.0921,414.7388,311.7148,415,300.2002,415 c-11.1693,0-22.1158-0.2112-32.8171-0.6265c11.0797,14.5847,22.4529,28.195,33.8497,40.4982 C312.2479,442.7689,323.3033,429.1733,334.2818,414.2365z M201.1147,357.9131l-0.0039-0.0068 c-5.5873-9.6661-10.9044-19.3977-15.9439-29.1429c-7.1292,16.9103-13.234,33.5626-18.2047,49.6708 c16.0008,3.4898,33.3235,6.273,51.776,8.3239C212.7001,377.3787,206.8116,367.753,201.1147,357.9131z M201.0029,243.3081 l0.0078-0.0137c5.5647-9.6268,11.3162-19.0513,17.2141-28.2419c-17.7491,2.225-34.8475,5.1547-50.8923,8.7322 c4.8886,15.7576,10.862,32.0324,17.8243,48.5513C190.1664,262.634,195.4514,252.9417,201.0029,243.3081z M267.1691,186.763 c10.8967-0.5031,21.9227-0.763,33.0311-0.763c11.229,0,22.3828,0.2725,33.4115,0.7966 c-10.9105-14.545-22.0044-27.9485-33.0764-39.9467C289.2629,159.0032,278.0767,172.3821,267.1691,186.763z M415.5031,272.4227 c7.1102-16.6514,13.1478-32.8911,17.9877-48.4127c-16.1833-3.6973-33.3583-6.7039-51.2328-8.9667 c5.8054,9.1071,11.4961,18.4688,17.0331,28.0547C405.0065,252.9783,410.4108,262.7606,415.5031,272.4227z M160.8361,200.5895 c23.3364-5.3034,48.608-9.2318,75.0156-11.6671c15.4014-21.7202,31.5317-41.682,47.8676-59.2196 c-2.8374-2.7097-5.6672-5.3278-8.4839-7.8273c-48.5479-43.1875-88.0054-52.813-104.126-43.4883 c-8.1904,4.7451-14.2949,16.603-17.1831,33.3857c-3.3408,19.4121-2.2852,44.1475,3.0522,71.5312 C158.0855,188.9545,159.379,194.7249,160.8361,200.5895z M143.6648,372.5839c7.1091-23.2371,16.4534-47.5104,27.7235-72.0299 c-11.091-24.1168-20.3129-48.0109-27.3528-70.9032c-6.7305,1.9042-13.2112,3.9311-19.3905,6.0821 c-25.7827,8.978-47.168,20.3623-61.8423,32.9214C50.2261,279.418,43.2998,290.5503,43.2998,300 c0,9.9668,7.4512,21.8369,20.9805,33.4229c15.7778,13.5117,38.4297,25.5537,65.5063,34.8232 C134.2532,369.7669,138.8871,371.2104,143.6648,372.5839z M273.7007,482.0664c3.5744-3.1228,7.1646-6.431,10.7653-9.8999 c-16.4866-17.6508-32.7643-37.7512-48.3105-59.6456c-27.3669-2.2095-52.7531-5.881-75.6469-10.9432 c-1.5772,6.3779-2.9544,12.6404-4.1198,18.765c-8.022,42.1318-6.4946,90.1826,14.9985,102.5576 C187.5405,532.1992,226.4482,523.3857,273.7007,482.0664z M441.1206,400.4745c-23.0878,5.3409-48.7181,9.2869-75.9342,11.7068 c-15.533,22.5219-31.354,42.6114-47.1479,59.8635c4.6877,4.5125,9.3566,8.775,13.9869,12.7579 c32.4814,27.9336,74.8848,50.5762,96.3877,38.1982c16.1123-9.2754,27.9023-47.332,15.7148-108.9736 C443.2598,409.6044,442.2534,405.0827,441.1206,400.4745z M557.0996,300c0-9.4546-7.2031-20.6665-20.2832-31.5698 c-15.1309-12.6128-37.0645-24.0884-63.4307-33.1865c-5.3682-1.8424-10.9257-3.5861-16.6385-5.2388 c-6.8978,22.3079-16.1224,45.9658-27.3405,70.1458c11.8358,24.9061,21.3736,48.7765,28.4112,71.1248 c3.1971-0.9547,6.3301-1.9382,9.3803-2.9571C528.9775,347.8936,557.0996,318.5889,557.0996,300z"/></svg>
