<?xml version="1.0" standalone="no"?>
<!DOCTYPE svg PUBLIC "-//W3C//DTD SVG 20010904//EN"
 "http://www.w3.org/TR/2001/REC-SVG-20010904/DTD/svg10.dtd">
<svg version="1.0" xmlns="http://www.w3.org/2000/svg"
 width="600.000000pt" height="600.000000pt" viewBox="0 0 600.000000 600.000000"
 preserveAspectRatio="xMidYMid meet">
<metadata>
Created by potrace 1.11, written by Peter Selinger 2001-2013
</metadata>
<g transform="translate(0.000000,600.000000) scale(0.100000,-0.100000)"
fill="#000000" stroke="none">
<path d="M1818 5495 c-2 -1 -25 -5 -53 -8 -420 -45 -591 -607 -425 -1402 10
-49 21 -102 25 -116 6 -25 3 -26 -97 -59 -703 -226 -1104 -577 -1075 -940 21
-258 250 -510 652 -718 126 -66 305 -138 446 -182 l77 -23 -13 -53 c-7 -30
-11 -54 -8 -54 2 0 0 -8 -6 -17 -5 -10 -11 -36 -14 -58 -3 -22 -13 -83 -21
-135 -87 -546 11 -981 256 -1142 92 -61 159 -80 285 -83 62 -2 127 1 145 5 18
5 62 16 98 25 241 60 576 257 824 485 21 19 49 45 63 57 13 13 29 23 36 23 7
0 37 -24 67 -53 256 -245 580 -443 846 -518 107 -30 303 -33 382 -6 177 62
289 192 363 422 11 33 22 76 25 95 3 19 7 42 9 50 28 108 27 538 -2 658 -4 18
-10 21 -27 16 -11 -4 -63 -20 -114 -36 l-94 -30 8 -77 c10 -96 11 -347 1 -424
-18 -150 -73 -297 -137 -370 -55 -63 -101 -81 -205 -81 -65 0 -111 6 -165 23
-156 47 -384 176 -557 313 l-63 49 -340 0 -340 1 -63 -49 c-185 -146 -394
-261 -559 -308 -84 -24 -106 -27 -188 -28 -180 -1 -277 111 -325 376 -13 70
-14 438 -2 497 3 14 11 59 17 100 15 94 14 89 35 186 l18 81 46 -9 c113 -22
209 -39 241 -44 19 -2 47 -7 62 -10 l28 -6 -38 79 -37 79 -93 34 c-54 20 -104
46 -121 62 l-29 29 29 87 c42 125 40 123 91 70 38 -40 58 -51 164 -88 115 -40
122 -44 128 -72 9 -47 56 -146 101 -218 28 -43 142 -165 334 -357 l292 -292
602 -1 c331 -1 610 -1 619 0 13 0 31 44 78 193 103 319 88 290 145 309 28 9
130 43 228 74 97 31 178 59 178 63 1 3 2 290 4 636 l2 630 -94 95 -93 96 31
84 c17 47 32 90 33 95 9 40 31 95 37 95 4 0 45 -12 90 -26 425 -134 753 -339
867 -543 31 -57 36 -75 36 -127 -1 -86 -45 -166 -150 -270 -67 -67 -266 -214
-289 -214 -3 0 -18 -8 -32 -17 -15 -10 -74 -39 -132 -65 l-106 -47 -2 -130 -1
-129 51 18 c71 24 187 76 277 124 468 247 690 553 614 846 -78 301 -450 581
-1028 776 -80 27 -130 49 -129 56 0 7 8 45 16 83 49 225 65 389 62 615 -3 204
-4 214 -36 348 -61 266 -199 434 -399 486 -55 15 -229 16 -295 2 -71 -15 -227
-72 -315 -116 -193 -95 -416 -253 -595 -422 -33 -32 -64 -58 -70 -58 -5 0 -32
21 -60 46 -146 134 -381 306 -537 392 -159 88 -370 156 -515 166 -39 2 -73 3
-75 1z m111 -250 c125 -13 343 -109 519 -226 75 -51 241 -178 272 -209 9 -8
32 -30 53 -49 l36 -34 83 54 c46 30 99 62 118 70 64 28 191 21 280 -15 13 -5
64 30 175 122 100 83 335 215 458 256 97 33 143 41 232 40 113 -2 180 -48 234
-159 13 -28 28 -58 32 -67 5 -9 18 -63 30 -120 39 -183 26 -558 -25 -773 -2
-5 -9 -38 -16 -72 -7 -35 -14 -63 -16 -63 -2 0 -57 11 -121 24 -65 14 -138 28
-163 31 l-45 7 67 -44 c62 -40 126 -96 191 -165 l27 -29 -30 -90 c-17 -49 -32
-95 -35 -103 -4 -9 -38 19 -100 82 -52 53 -121 114 -152 135 -58 38 -192 102
-216 102 -26 0 -38 20 -78 133 l-41 118 -210 210 c-171 169 -222 215 -270 238
-105 50 -76 64 -657 -323 l-518 -345 -120 -183 c-122 -185 -398 -605 -511
-776 -58 -88 -61 -96 -57 -143 7 -72 30 -114 113 -201 l74 -77 -32 -88 c-17
-48 -41 -117 -52 -153 -11 -36 -22 -68 -24 -71 -14 -23 -457 156 -579 233
-148 95 -203 137 -278 213 -189 193 -190 344 -3 530 156 156 401 290 724 398
151 51 135 56 172 -58 12 -38 25 -73 29 -77 3 -4 16 7 28 25 40 60 310 472
317 485 8 14 -12 12 -141 -17 -45 -10 -87 -15 -92 -12 -5 4 -21 62 -35 131
-44 221 -55 328 -51 535 5 295 65 467 189 544 30 19 127 41 151 35 6 -2 34 -5
64 -9z"/>
</g>
</svg>
