<?xml version="1.0" standalone="no"?>
<!DOCTYPE svg PUBLIC "-//W3C//DTD SVG 20010904//EN"
 "http://www.w3.org/TR/2001/REC-SVG-20010904/DTD/svg10.dtd">
<svg version="1.0" xmlns="http://www.w3.org/2000/svg"
 width="480.000000pt" height="480.000000pt" viewBox="0 0 480.000000 480.000000"
 preserveAspectRatio="xMidYMid meet">
<metadata>
Created by potrace 1.11, written by Peter Selinger 2001-2013
</metadata>
<g transform="translate(0.000000,480.000000) scale(0.100000,-0.100000)"
fill="#000000" stroke="none">
<path d="M1392 4389 c-157 -29 -275 -155 -332 -354 -27 -94 -34 -165 -35 -325
0 -184 19 -349 59 -498 l15 -54 -34 -14 c-19 -8 -39 -14 -45 -14 -24 0 -244
-87 -343 -135 -149 -74 -264 -153 -355 -244 -171 -171 -212 -345 -126 -527 39
-82 127 -186 214 -252 19 -15 37 -30 40 -33 13 -16 154 -101 239 -144 102 -51
260 -114 346 -140 30 -8 55 -19 55 -23 0 -4 -11 -61 -24 -127 -37 -181 -45
-264 -41 -445 3 -168 4 -179 31 -285 51 -198 176 -334 339 -364 78 -15 202 -5
300 24 89 26 304 125 325 150 10 12 17 221 8 230 -2 2 -31 -14 -63 -36 -246
-164 -498 -225 -609 -146 -129 91 -175 407 -111 768 31 178 34 190 58 185 92
-19 244 -46 258 -46 16 0 15 7 -10 62 -29 62 -29 62 -97 85 -38 13 -82 34 -97
47 l-28 24 27 78 c14 44 28 81 30 83 2 3 19 -12 38 -32 25 -28 54 -43 129 -69
l96 -33 26 -70 c42 -116 91 -178 337 -421 l233 -231 492 0 492 0 10 26 c5 14
34 102 64 195 l53 169 70 22 c38 13 121 39 184 59 l115 37 0 509 0 509 -74 75
-73 76 37 110 c21 60 41 110 45 110 3 0 51 -15 106 -34 335 -115 563 -260 654
-418 60 -105 34 -195 -89 -319 -91 -90 -166 -141 -328 -220 l-121 -60 0 -99
c0 -55 5 -100 10 -100 17 0 175 68 254 110 246 129 426 301 482 461 100 289
-182 604 -718 802 -52 19 -120 43 -151 52 l-55 18 12 48 c7 26 15 63 18 81 11
67 16 93 21 114 9 42 19 191 19 294 0 176 -14 276 -55 393 -50 140 -128 234
-237 285 -52 25 -67 27 -177 26 -108 0 -130 -4 -214 -33 -114 -39 -224 -94
-347 -177 -51 -34 -98 -66 -106 -72 -40 -33 -174 -147 -183 -156 -6 -6 -20
-20 -33 -30 -22 -19 -22 -19 -70 25 -218 200 -440 340 -637 403 -124 39 -235
51 -323 35z m2009 -198 c109 -41 181 -242 181 -498 0 -72 -3 -100 -18 -238 -6
-53 -42 -246 -46 -250 -2 -2 -59 8 -127 21 -69 13 -126 22 -128 21 -2 -2 19
-18 46 -35 26 -17 76 -58 109 -90 l62 -58 -25 -79 c-14 -43 -27 -80 -29 -83
-2 -2 -41 33 -86 77 -88 87 -162 136 -259 171 -34 13 -61 26 -61 31 0 4 -14
47 -31 94 l-31 86 -175 174 c-186 185 -228 213 -296 202 -21 -3 -185 -107
-442 -279 l-410 -273 -110 -166 c-60 -91 -186 -281 -278 -422 -161 -246 -168
-259 -163 -297 8 -58 31 -98 93 -161 l55 -57 -42 -126 c-24 -69 -48 -126 -54
-126 -18 1 -145 45 -231 80 -331 138 -557 338 -557 495 0 121 137 265 372 392
50 27 229 105 270 118 3 1 38 12 79 25 84 26 82 28 107 -63 9 -32 21 -56 26
-55 10 4 279 411 274 416 -2 1 -45 -6 -95 -16 l-92 -19 -8 21 c-7 18 -21 86
-46 231 -34 201 -21 450 31 579 31 76 66 122 114 146 50 26 178 22 268 -8 165
-55 377 -189 559 -352 l43 -39 71 49 c101 69 183 82 287 46 36 -13 42 -13 53
0 19 23 187 146 254 186 207 123 381 170 486 129z"/>
<path d="M3648 1383 l-76 -27 6 -35 c9 -48 9 -335 0 -391 -25 -157 -85 -273
-163 -313 -132 -67 -384 22 -668 237 l-68 51 -140 0 c-76 0 -139 -3 -139 -6 0
-4 28 -32 63 -62 253 -223 415 -326 627 -398 86 -30 106 -33 215 -33 116 -1
123 0 185 31 227 112 329 425 284 873 -4 41 -8 80 -8 85 -2 19 -41 14 -118
-12z"/>
</g>
</svg>
